<svg width="200" height="200" viewBox="0 0 200 200" fill="none" xmlns="http://www.w3.org/2000/svg">
<path fill-rule="evenodd" clip-rule="evenodd" d="M91.4062 0C97.2656 0 103.125 0 108.984 0C144.002 4.25309 170.369 21.5708 188.086 51.9531C194.607 64.2465 198.579 77.2672 200 91.0156C200 96.875 200 102.734 200 108.594C195.123 147.776 174.811 175.706 139.062 192.383C129.225 196.405 119.069 198.944 108.594 200C102.734 200 96.875 200 91.0156 200C52.0418 194.941 24.2424 174.629 7.61719 139.062C3.65802 129.345 1.11895 119.319 0 108.984C0 102.995 0 97.0051 0 91.0156C3.83085 58.1023 19.5861 32.6466 47.2656 14.6484C60.907 6.43375 75.6203 1.55094 91.4062 0ZM127.344 55.0781C130.421 54.6875 133.286 55.2734 135.938 56.8359C138.607 58.9844 141.016 61.3934 143.164 64.0625C145.508 68.0988 145.508 72.1355 143.164 76.1719C139.772 80.15 136.061 83.7957 132.031 87.1094C125.521 80.8594 119.141 74.4793 112.891 67.9688C116.466 64.198 120.112 60.4871 123.828 56.8359C125.036 56.232 126.208 55.6461 127.344 55.0781ZM57.8125 55.8594C61.0559 55.4977 63.9207 56.3437 66.4062 58.3984C74.2078 65.809 81.8898 73.3613 89.4531 81.0547C84.9555 85.6176 80.398 90.1098 75.7812 94.5312C67.8555 87.1918 60.1082 79.6398 52.5391 71.875C50.0074 68.1285 49.7469 64.2223 51.7578 60.1562C53.3027 58.0207 55.3211 56.5883 57.8125 55.8594ZM107.031 73.0469C107.442 72.9887 107.833 73.0535 108.203 73.2422C114.583 79.6223 120.964 86.0027 127.344 92.3828C112.359 107.498 97.2547 122.472 82.0312 137.305C80.3172 138.422 78.4945 139.334 76.5625 140.039C70.6941 141.88 64.7695 143.508 58.7891 144.922C55.9887 144.409 54.8168 142.716 55.2734 139.844C56.6449 134.748 58.0773 129.67 59.5703 124.609C60.1801 122.257 61.0914 120.043 62.3047 117.969C77.2922 103.046 92.2012 88.0723 107.031 73.0469ZM123.047 106.25C128.296 106.999 132.397 109.604 135.352 114.062C138.004 118.772 139.045 123.85 138.477 129.297C139.171 130.903 140.278 132.14 141.797 133.008C145.064 132.851 147.603 134.088 149.414 136.719C150.461 140.158 149.354 142.567 146.094 143.945C144.141 144.011 142.188 144.075 140.234 144.141C134.241 143.726 128.251 143.726 122.266 144.141C111.539 144.939 104.312 140.382 100.586 130.469C100.338 129.635 100.468 128.854 100.977 128.125C108.292 120.744 115.649 113.452 123.047 106.25Z" fill="#201816"/>
</svg>
