<svg width="200" height="201" viewBox="0 0 200 201" fill="none" xmlns="http://www.w3.org/2000/svg">
<path d="M100.228 0C155.33 2.88715e-05 200 44.683 200 99.8018V100.257C200 155.376 155.33 200.059 100.228 200.059H99.7725C44.6698 200.059 0 155.376 0 100.257V99.8018C0 44.683 44.6698 0 99.7725 0H100.228ZM69.0605 40.7012C51.9637 40.7012 38.0549 54.614 38.0547 71.7158V128.349C38.0547 145.451 51.9635 159.364 69.0605 159.364H130.946C148.043 159.364 161.952 145.451 161.952 128.349V71.7158C161.952 54.6141 148.043 40.7013 130.946 40.7012H69.0605ZM130.946 51.6426C142.01 51.6427 151.013 60.6488 151.014 71.7158V128.349C151.014 139.416 142.01 148.423 130.946 148.423H69.0605C57.9965 148.423 48.9922 139.416 48.9922 128.349V71.7158C48.9924 60.6487 57.9967 51.6426 69.0605 51.6426H130.946ZM100.004 71.1768C84.0981 71.1768 71.1632 84.115 71.1631 100.025C71.1631 115.936 84.0981 128.875 100.004 128.875C115.903 128.875 128.844 115.936 128.844 100.025C128.844 84.1151 115.909 71.177 100.004 71.1768ZM100.004 82.124C109.876 82.1243 117.906 90.1568 117.906 100.032C117.906 109.908 109.877 117.94 100.004 117.94C90.1311 117.94 82.1006 109.908 82.1006 100.032C82.1007 90.1567 90.1312 82.124 100.004 82.124ZM131.514 60.291C127.226 60.2911 123.743 63.775 123.743 68.0645C123.743 72.3538 127.226 75.8368 131.514 75.8369C135.795 75.8369 139.284 72.3539 139.284 68.0645C139.284 63.775 135.802 60.291 131.514 60.291Z" fill="#201816"/>
</svg>
