<svg width="200" height="201" viewBox="0 0 200 201" fill="none" xmlns="http://www.w3.org/2000/svg">
<path d="M100.228 0C155.33 0 200 44.6827 200 99.8018V100.258C200 155.377 155.33 200.06 100.228 200.06H99.7725C44.6698 200.06 2.06128e-05 155.377 0 100.258V99.8018C0.000218469 44.6827 44.6699 0 99.7725 0H100.228ZM110.065 33.8184C88.4281 31.3652 64.7309 39.4541 51.9922 59.4365C40.4938 77.4779 42.9811 98.7857 51.6768 109.559C54.2272 112.727 57.3728 115.131 61.1494 116.659C63.0763 117.444 66.1109 116.75 66.6436 114.844C67.3583 112.285 67.94 109.691 68.5986 107.119C69.0254 105.465 66.5804 104.463 65.2842 102.83C55.04 89.9754 60.1973 61.8549 82.8789 51.3623C102.659 42.2018 133.846 48.3487 135.528 76.7979C136.383 91.0683 131.892 111.199 120.316 119.596C107.767 128.707 93.0809 119.834 96.2266 107.358C100.024 92.2328 104.971 81.9987 103.101 74.1836C100.066 61.5466 82.7029 62.7174 77.8682 78.0391C75.633 85.1322 76.1378 92.1344 78.6953 99.0312C78.9195 99.648 79.0945 100.216 78.9404 100.902C68.2618 145.816 67.2391 148.663 66.9658 156.947C66.7556 163.311 67.2386 169.627 68.1074 175.928C68.1915 176.566 68.2549 177.288 69.0537 177.456C69.7823 177.603 70.1259 177 70.4902 176.53C73.7203 172.381 76.6419 168.043 79.2344 163.466C84.6718 153.835 85.2605 149.23 90.5508 128.497C90.6419 128.147 90.7539 127.796 90.873 127.383V127.376C91.7068 128.406 92.3866 129.408 93.2344 130.271C104.256 141.492 128.143 140.279 142.879 122C155.688 106.089 156.69 83.5828 155.296 74.457C152.241 54.4182 135.907 36.7552 110.065 33.8184Z" fill="#201816"/>
</svg>
