<svg width="200" height="201" viewBox="0 0 200 201" fill="none" xmlns="http://www.w3.org/2000/svg">
<path d="M100.228 0C155.33 0 200 44.6823 200 99.8008V100.257C200 155.375 155.33 200.058 100.228 200.058H99.7725C44.6698 200.058 5.77163e-05 155.375 0 100.257V99.8008C0.000210226 44.6823 44.6699 0 99.7725 0H100.228ZM152.661 51.2217C150.573 50.3175 148.169 50.4859 145.99 50.8994C144.841 51.1167 143.727 51.5096 142.585 51.7129C141.226 51.9512 139.852 52.7638 138.584 53.3105L104.348 67.959C98.644 70.3981 92.9332 72.845 87.2295 75.2842C81.5259 77.7233 75.8149 80.1693 70.1113 82.6084L61.5557 86.2734C60.1264 86.8831 58.7046 87.4938 57.2754 88.1035C56.5677 88.4119 55.8524 88.7131 55.1377 89.0215C54.7664 89.1827 54.3948 89.3369 54.0234 89.498C53.7782 89.5962 53.3442 89.8973 53.085 89.8975C48.2783 91.9581 43.4645 94.0189 38.7139 96.2197C38.4407 96.3458 38.1601 96.479 37.8799 96.6191L37.8652 96.6123C36.7092 97.201 35.6095 97.9231 35.042 99.0654C34.1382 100.888 34.9996 103.187 36.499 104.554C37.9985 105.92 40.0025 106.572 41.9434 107.175C45.594 108.317 49.259 109.425 52.9307 110.504C57.3099 111.794 61.8642 113.055 66.3906 112.41C71.4496 111.695 75.8507 108.696 80.0479 105.78C92.9126 96.8439 105.77 87.9003 118.635 78.9639C119.658 78.256 120.947 77.5129 122.068 78.0596C123.953 78.9778 122.874 81.8514 121.501 83.4424C111.768 94.7269 98.6862 102.857 89.6191 114.688C88.5261 116.111 87.4544 117.71 87.4404 119.504C87.4126 122.483 90.173 124.628 92.6533 126.268C103.087 133.178 113.527 140.089 123.96 147C126.475 148.661 129.04 150.35 131.948 151.156C134.856 151.955 138.205 151.745 140.56 149.859C143.341 147.631 144.07 143.762 144.603 140.236C148.512 114.541 152.415 88.8394 156.318 63.1445C156.879 59.4578 157.25 55.1536 154.602 52.5322C154.048 51.9787 153.383 51.537 152.661 51.2217Z" fill="#201816"/>
</svg>
