<svg width="200" height="201" viewBox="0 0 200 201" fill="none" xmlns="http://www.w3.org/2000/svg">
<path d="M100.228 0C155.33 0 200 44.6823 200 99.8008V100.257C200 155.375 155.33 200.058 100.228 200.058H99.7725C44.6698 200.058 5.77164e-05 155.375 0 100.257V99.8008C0.000210227 44.6823 44.6699 0 99.7725 0H100.228ZM104.061 45.8389V120.029C104.082 120.366 104.089 120.702 104.089 121.038C104.089 130.016 96.7804 137.327 87.8047 137.327C78.8288 137.327 71.5205 130.024 71.5205 121.038C71.5207 112.053 78.8289 104.75 87.8047 104.75C89.7174 104.75 91.5532 105.079 93.2627 105.688V87.0732C91.4831 86.7859 89.6614 86.6387 87.8047 86.6387C68.844 86.6387 53.4211 102.079 53.4209 121.038C53.4209 139.997 68.8438 155.432 87.8047 155.432C106.765 155.431 122.188 139.997 122.188 121.038C122.187 120.26 122.159 119.489 122.11 118.732L122.188 118.852V80.6738C125.207 83.0779 129.818 86.1832 136.012 88.4541C140.755 90.1923 145.044 90.9422 148.345 91.2646V72.3887C145.388 71.877 141.211 70.7906 136.762 68.2744C132.011 65.576 128.627 62.1977 126.336 59.2891C124.381 56.815 123.26 53.7944 123.134 50.6475C123.064 49.0494 123 47.4369 122.93 45.8389H104.061Z" fill="#201816"/>
</svg>
