<svg width="200" height="201" viewBox="0 0 200 201" fill="none" xmlns="http://www.w3.org/2000/svg">
<path d="M100.228 0C155.33 4.12451e-06 200 44.683 200 99.8018V100.257C200 155.376 155.33 200.059 100.228 200.059H99.7725C44.6698 200.059 0 155.376 0 100.257V99.8018C0 44.683 44.6698 0 99.7725 0H100.228ZM87.5938 34.4004C86.6407 49.1122 78.3868 66.1088 58.6484 71.2324V92.3018H76.5859V131.216C76.586 155.516 91.2937 165.672 111.032 165.672H132.95V139.857H121.375C113.212 139.857 108.09 136.346 108.09 126.19V92.3018H132.004V67.8125H108.09V34.4004H87.5938Z" fill="#201816"/>
</svg>
