<svg width="18" height="18" viewBox="0 0 18 18" fill="none" xmlns="http://www.w3.org/2000/svg">
<g clip-path="url(#clip0_1_2)">
<path d="M16 4L14.6496 4.94286C14.3308 5.16541 13.9432 5.28571 13.5447 5.28571H10.4526C9.90247 5.28571 9.39947 5.57509 9.15346 6.03319C8.8498 6.59852 9.00733 7.28424 9.5328 7.68451L11.3743 9.08706C12.8234 10.1909 13.5733 11.9029 13.3666 13.6353L13.324 13.9923C13.2667 14.4723 13.1551 14.9453 12.9911 15.4034L12.7774 16" stroke="#201816" stroke-width="2"/>
<path d="M1 7.49071L3.63932 7.02417C4.74265 6.82913 5.69919 7.84368 5.5153 9.01384L5.40566 9.71156C5.20936 10.9607 5.80418 12.1996 6.87216 12.7659C7.72728 13.2195 8.17077 14.242 7.93888 15.2257L7.52066 17" stroke="#201816" stroke-width="2"/>
<path d="M9 17C13.4183 17 17 13.4183 17 9C17 4.58172 13.4183 1 9 1C4.58172 1 1 4.58172 1 9C1 13.4183 4.58172 17 9 17Z" stroke="#201816" stroke-width="2"/>
</g>
<defs>
<clipPath id="clip0_1_2">
<rect width="18" height="18" fill="white"/>
</clipPath>
</defs>
</svg>
